<?xml version="1.0" encoding="UTF-8" standalone="no"?>
<!-- Created with Inkscape (http://www.inkscape.org/) -->

<svg
   xmlns:dc="http://purl.org/dc/elements/1.1/"
   xmlns:cc="http://creativecommons.org/ns#"
   xmlns:rdf="http://www.w3.org/1999/02/22-rdf-syntax-ns#"
   xmlns:svg="http://www.w3.org/2000/svg"
   xmlns="http://www.w3.org/2000/svg"
   xmlns:sodipodi="http://sodipodi.sourceforge.net/DTD/sodipodi-0.dtd"
   xmlns:inkscape="http://www.inkscape.org/namespaces/inkscape"
   version="1.1"
   id="svg5250"
   width="296.26666"
   height="286.49976"
   viewBox="0 0 296.26666 286.49976"
   sodipodi:docname="jozaylogo3.svg"
   inkscape:version="0.92.4 (5da689c313, 2019-01-14)">
  <metadata
     id="metadata5256">
    <rdf:RDF>
      <cc:Work
         rdf:about="">
        <dc:format>image/svg+xml</dc:format>
        <dc:type
           rdf:resource="http://purl.org/dc/dcmitype/StillImage" />
        <dc:title></dc:title>
      </cc:Work>
    </rdf:RDF>
  </metadata>
  <defs
     id="defs5254" />
  <sodipodi:namedview
     pagecolor="#ffffff"
     bordercolor="#666666"
     borderopacity="1"
     objecttolerance="10"
     gridtolerance="10"
     guidetolerance="10"
     inkscape:pageopacity="0"
     inkscape:pageshadow="2"
     inkscape:window-width="1680"
     inkscape:window-height="987"
     id="namedview5252"
     showgrid="false"
     inkscape:pagecheckerboard="true"
     inkscape:zoom="0.83176691"
     inkscape:cx="-36.009043"
     inkscape:cy="154.24859"
     inkscape:window-x="1672"
     inkscape:window-y="-8"
     inkscape:window-maximized="1"
     inkscape:current-layer="svg5250"
     fit-margin-top="0"
     fit-margin-left="0"
     fit-margin-right="0"
     fit-margin-bottom="0" />
  <path
     style="fill:#000000;stroke-width:1.06666672"
     d="m 148.82657,283.87254 c -14.80779,-6.15188 -41.70993,-28.13996 -46.91843,-38.34809 -3.154578,-6.18265 -1.30101,-14.49136 3.23285,-14.49136 0.92387,0 7.4651,5.92107 14.53605,13.15792 14.20158,14.53478 21.00905,19.24903 34.19986,23.68382 6.87989,2.31305 9.85981,2.7699 15.45643,2.36964 12.18572,-0.87147 25.64145,-9.68826 33.51979,-21.96361 5.6066,-8.73571 26.30603,-46.81525 30.7333,-56.53823 8.74333,-19.20178 12.79084,-36.87687 12.86409,-56.17621 0.0398,-10.49674 -0.38046,-14.08538 -2.33574,-19.94331 -4.7624,-14.26797 -6.84673,-15.798612 -37.67998,-27.670569 -23.81356,-9.16912 -34.26012,-12.028829 -52.40478,-14.345635 -30.08487,-3.841396 -57.39316,0.21746 -84.01169,12.486735 -8.58719,3.95809 -11.13696,3.59931 -10.13196,-1.4257 0.88286,-4.41429 3.86861,-7.57666 12.38031,-13.11265 14.89157,-9.685446 31.68679,-15.284926 48.53333,-16.180875 16.46342,-0.875573 85.29342,4.907153 123.00791,10.334464 l 14.2079,2.044592 19.12543,18.313769 19.12542,18.313769 v 6.85308 c 0,5.37473 -0.78383,8.73841 -3.63355,15.59272 -14.09367,33.89894 -56.28395,119.6536 -65.42745,132.98583 -7.17443,10.46111 -15.51452,17.70196 -26.51759,23.02249 l -7.57859,3.66463 -19.08808,-0.0451 c -17.62062,-0.0416 -19.55754,-0.24013 -25.19483,-2.58213 z"
     id="path5264"
     inkscape:connector-curvature="0"
     inkscape:export-xdpi="96"
     inkscape:export-ydpi="96" />
  <path
     style="fill:#000000;stroke-width:1.06666672"
     d="M 102.93333,189.8159 C 89.88456,188.37042 75.04659,185.55623 65.60434,182.73601 57.86582,180.42468 56.39951,179.52335 49.78317,173.01084 42.06561,165.41439 16.41009,137.59619 6.122,125.66916 L 0,118.5719 V 108.28925 C 0,99.100508 0.40971,96.905148 3.85122,87.653171 16.03741,54.892491 27.74493,32.484469 35.63604,26.817502 48.53273,17.555796 64.99421,10.168291 88.53333,3.0784913 99.540592,-0.23680767 100.01785,-0.28532267 116.26666,0.25927233 148.46735,1.3385113 224.78458,17.750716 225.95898,23.848867 c 0.67534,3.506746 -1.21471,4.011009 -10.59896,2.827797 -29.30975,-3.695507 -79.52785,-5.900926 -100.70396,-4.422595 -25.07321,1.750394 -31.76451,4.93417 -51.5341,24.520344 -13.59418,13.468058 -22.10962,25.540118 -23.21742,32.914568 -1.07678,7.16788 0.99584,22.870869 4.2443,32.156489 3.23308,9.24169 10.01791,22.17269 14.80577,28.21784 8.93358,11.27957 39.560112,29.06881 55.71205,32.36002 7.33632,1.49489 9.63748,1.54932 16.40458,0.38798 14.82071,-2.54347 25.83992,-10.64799 29.05144,-21.36709 2.86233,-9.55358 -0.0247,-11.43677 -37.481,-24.44861 -11.96979,-4.15817 -22.49277,-8.28979 -23.384388,-9.18142 -1.24716,-1.24716 -1.34718,-2.04712 -0.43358,-3.46778 1.456508,-2.26488 5.857058,-2.24533 50.509618,0.22442 l 31.46667,1.74044 8.87337,8.76091 c 4.88036,4.8185 9.35145,9.62743 9.93573,10.6865 0.80836,1.46521 -0.76988,7.45829 -6.60115,25.06667 -4.21492,12.72759 -8.31079,23.82872 -9.10193,24.66919 -2.76062,2.93271 -16.38781,4.40867 -44.70602,4.84214 -15.25334,0.23348 -31.57334,-8.7e-4 -36.26667,-0.52078 z"
     id="path5260"
     inkscape:connector-curvature="0"
     inkscape:export-xdpi="96"
     inkscape:export-ydpi="96" />
</svg>
